<mxfile host="Electron" agent="Mozilla/5.0 (Windows NT 10.0; Win64; x64) AppleWebKit/537.36 (KHTML, like Gecko) draw.io/27.0.9 Chrome/134.0.6998.205 Electron/35.4.0 Safari/537.36" version="27.0.9">
  <diagram name="Page-1" id="wWm3oFifaIzlCJxBvwEI">
    <mxGraphModel dx="731" dy="507" grid="1" gridSize="10" guides="1" tooltips="1" connect="1" arrows="1" fold="1" page="1" pageScale="1" pageWidth="850" pageHeight="1100" math="0" shadow="0">
      <root>
        <mxCell id="0" />
        <mxCell id="1" parent="0" />
        <mxCell id="loMx2dHr52xI0PEySTr8-5" value="" style="edgeStyle=orthogonalEdgeStyle;rounded=0;orthogonalLoop=1;jettySize=auto;html=1;" edge="1" parent="1" source="loMx2dHr52xI0PEySTr8-1" target="loMx2dHr52xI0PEySTr8-4">
          <mxGeometry relative="1" as="geometry" />
        </mxCell>
        <mxCell id="loMx2dHr52xI0PEySTr8-1" value="setMembershipDiscount()" style="strokeWidth=2;html=1;shape=mxgraph.flowchart.terminator;whiteSpace=wrap;fillColor=#d80073;fontColor=#ffffff;strokeColor=#A50040;" vertex="1" parent="1">
          <mxGeometry x="160" y="60" width="180" height="90" as="geometry" />
        </mxCell>
        <mxCell id="loMx2dHr52xI0PEySTr8-7" value="" style="edgeStyle=orthogonalEdgeStyle;rounded=0;orthogonalLoop=1;jettySize=auto;html=1;" edge="1" parent="1" source="loMx2dHr52xI0PEySTr8-4" target="loMx2dHr52xI0PEySTr8-6">
          <mxGeometry relative="1" as="geometry" />
        </mxCell>
        <mxCell id="loMx2dHr52xI0PEySTr8-4" value="Declare:&lt;div&gt;membership&lt;/div&gt;" style="whiteSpace=wrap;html=1;strokeWidth=2;fillColor=#fa6800;fontColor=#FFFFFF;strokeColor=#C73500;" vertex="1" parent="1">
          <mxGeometry x="190" y="200" width="120" height="60" as="geometry" />
        </mxCell>
        <mxCell id="loMx2dHr52xI0PEySTr8-11" value="" style="edgeStyle=orthogonalEdgeStyle;rounded=0;orthogonalLoop=1;jettySize=auto;html=1;" edge="1" parent="1" source="loMx2dHr52xI0PEySTr8-6" target="loMx2dHr52xI0PEySTr8-10">
          <mxGeometry relative="1" as="geometry" />
        </mxCell>
        <mxCell id="loMx2dHr52xI0PEySTr8-6" value="Prompt:&lt;div&gt;&quot;Do you have a membership? (Y/N): &quot;&lt;/div&gt;" style="shape=parallelogram;perimeter=parallelogramPerimeter;whiteSpace=wrap;html=1;fixedSize=1;fillColor=#60a917;strokeColor=#2D7600;fontColor=#ffffff;strokeWidth=2;" vertex="1" parent="1">
          <mxGeometry x="120" y="300" width="260" height="60" as="geometry" />
        </mxCell>
        <mxCell id="loMx2dHr52xI0PEySTr8-13" value="" style="edgeStyle=orthogonalEdgeStyle;rounded=0;orthogonalLoop=1;jettySize=auto;html=1;" edge="1" parent="1" source="loMx2dHr52xI0PEySTr8-10" target="loMx2dHr52xI0PEySTr8-12">
          <mxGeometry relative="1" as="geometry" />
        </mxCell>
        <mxCell id="loMx2dHr52xI0PEySTr8-10" value="Input:&lt;div&gt;membership&lt;/div&gt;" style="shape=parallelogram;perimeter=parallelogramPerimeter;whiteSpace=wrap;html=1;fixedSize=1;fillColor=#E3C800;strokeColor=#B09500;fontColor=default;strokeWidth=2;align=center;verticalAlign=middle;fontFamily=Helvetica;fontSize=12;" vertex="1" parent="1">
          <mxGeometry x="175" y="410" width="150" height="60" as="geometry" />
        </mxCell>
        <mxCell id="loMx2dHr52xI0PEySTr8-15" value="" style="edgeStyle=orthogonalEdgeStyle;rounded=0;orthogonalLoop=1;jettySize=auto;html=1;" edge="1" parent="1" source="loMx2dHr52xI0PEySTr8-12" target="loMx2dHr52xI0PEySTr8-14">
          <mxGeometry relative="1" as="geometry" />
        </mxCell>
        <mxCell id="loMx2dHr52xI0PEySTr8-16" value="True" style="edgeLabel;html=1;align=center;verticalAlign=middle;resizable=0;points=[];" vertex="1" connectable="0" parent="loMx2dHr52xI0PEySTr8-15">
          <mxGeometry x="-0.1385" y="-1" relative="1" as="geometry">
            <mxPoint y="-2" as="offset" />
          </mxGeometry>
        </mxCell>
        <mxCell id="loMx2dHr52xI0PEySTr8-18" value="" style="edgeStyle=orthogonalEdgeStyle;rounded=0;orthogonalLoop=1;jettySize=auto;html=1;" edge="1" parent="1" source="loMx2dHr52xI0PEySTr8-12" target="loMx2dHr52xI0PEySTr8-17">
          <mxGeometry relative="1" as="geometry" />
        </mxCell>
        <mxCell id="loMx2dHr52xI0PEySTr8-19" value="False" style="edgeLabel;html=1;align=center;verticalAlign=middle;resizable=0;points=[];" vertex="1" connectable="0" parent="loMx2dHr52xI0PEySTr8-18">
          <mxGeometry x="0.1067" relative="1" as="geometry">
            <mxPoint x="4" as="offset" />
          </mxGeometry>
        </mxCell>
        <mxCell id="loMx2dHr52xI0PEySTr8-12" value="membership== &#39;Y&#39;" style="rhombus;whiteSpace=wrap;html=1;fillColor=#1ba1e2;strokeColor=#006EAF;strokeWidth=2;fontColor=#ffffff;" vertex="1" parent="1">
          <mxGeometry x="185" y="540" width="130" height="110" as="geometry" />
        </mxCell>
        <mxCell id="loMx2dHr52xI0PEySTr8-14" value="return 0.1" style="strokeWidth=2;html=1;shape=mxgraph.flowchart.terminator;whiteSpace=wrap;fillColor=#d80073;fontColor=#ffffff;strokeColor=#A50040;" vertex="1" parent="1">
          <mxGeometry x="380" y="575" width="80" height="40" as="geometry" />
        </mxCell>
        <mxCell id="loMx2dHr52xI0PEySTr8-17" value="return 0.0" style="strokeWidth=2;html=1;shape=mxgraph.flowchart.terminator;whiteSpace=wrap;fillColor=#d80073;fontColor=#ffffff;strokeColor=#A50040;" vertex="1" parent="1">
          <mxGeometry x="34" y="575" width="80" height="40" as="geometry" />
        </mxCell>
      </root>
    </mxGraphModel>
  </diagram>
</mxfile>
